<svg id="Layer_1" data-name="Layer 1" xmlns="http://www.w3.org/2000/svg" viewBox="0 0 1200 800"><defs><style>.cls-1{fill:none;}.cls-2{fill:#fff;}</style></defs><title>Background</title><polygon class="cls-1" points="27.66 0 29.04 0.33 0 120.7 0 273.5 65.98 0 27.66 0"/><polygon class="cls-1" points="1020.67 0 982.35 0 983.73 0.33 790.81 800 829.13 800 827.75 799.67 1020.67 0"/><polygon class="cls-1" points="1100.23 0 1061.91 0 1063.29 0.33 870.37 800 908.69 800 907.31 799.67 1100.23 0"/><polygon class="cls-1" points="742.22 0 703.9 0 705.28 0.33 512.36 800 550.68 800 549.3 799.67 742.22 0"/><polygon class="cls-1" points="980.89 0 942.58 0 943.95 0.33 751.03 800 789.35 800 787.98 799.67 980.89 0"/><polygon class="cls-1" points="1140.01 0 1101.69 0 1103.07 0.33 910.15 800 948.47 800 947.09 799.67 1140.01 0"/><polygon class="cls-1" points="0 0 0 108.61 26.2 0 0 0"/><polygon class="cls-1" points="901.34 0 863.02 0 864.39 0.33 671.48 800 709.8 800 708.42 799.67 901.34 0"/><polygon class="cls-1" points="941.12 0 902.8 0 904.17 0.33 711.25 800 749.58 800 748.2 799.67 941.12 0"/><polygon class="cls-1" points="1060.45 0 1022.13 0 1023.51 0.33 830.59 800 868.91 800 867.53 799.67 1060.45 0"/><polygon class="cls-1" points="1200 740.66 1200 587.86 1148.82 800 1187.14 800 1185.76 799.67 1200 740.66"/><polygon class="cls-1" points="1179.79 0 1141.47 0 1142.85 0.33 949.93 800 988.25 800 986.87 799.67 1179.79 0"/><polygon class="cls-1" points="1188.6 800 1200 800 1200 752.75 1188.6 800"/><polygon class="cls-1" points="782 0 743.68 0 745.06 0.33 552.14 800 590.46 800 589.08 799.67 782 0"/><polygon class="cls-1" points="1200 575.77 1200 422.97 1109.04 800 1147.36 800 1145.98 799.67 1200 575.77"/><polygon class="cls-1" points="1200 81.11 1200 0 1181.25 0 1182.63 0.33 989.71 800 1028.03 800 1026.65 799.67 1200 81.11"/><polygon class="cls-1" points="702.44 0 664.12 0 665.5 0.33 472.58 800 510.9 800 509.52 799.67 702.44 0"/><polygon class="cls-1" points="1200 246 1200 93.2 1029.48 800 1067.81 800 1066.43 799.67 1200 246"/><polygon class="cls-1" points="1200 410.89 1200 258.09 1069.26 800 1107.58 800 1106.21 799.67 1200 410.89"/><polygon class="cls-1" points="583.11 0 544.79 0 546.16 0.33 353.24 800 391.56 800 390.19 799.67 583.11 0"/><polygon class="cls-1" points="503.55 0 465.23 0 466.61 0.33 273.69 800 312.01 800 310.63 799.67 503.55 0"/><polygon class="cls-1" points="423.99 0 385.67 0 387.05 0.33 194.13 800 232.45 800 231.07 799.67 423.99 0"/><polygon class="cls-1" points="463.77 0 425.45 0 426.83 0.33 233.91 800 272.23 800 270.85 799.67 463.77 0"/><polygon class="cls-1" points="543.33 0 505.01 0 506.38 0.33 313.46 800 351.79 800 350.41 799.67 543.33 0"/><polygon class="cls-1" points="821.78 0 783.46 0 784.84 0.33 591.92 800 630.24 800 628.86 799.67 821.78 0"/><polygon class="cls-1" points="662.66 0 624.34 0 625.72 0.33 432.8 800 471.12 800 469.75 799.67 662.66 0"/><polygon class="cls-1" points="67.44 0 68.82 0.33 0 285.59 0 438.39 105.76 0 67.44 0"/><polygon class="cls-1" points="622.89 0 584.57 0 585.94 0.33 393.02 800 431.34 800 429.97 799.67 622.89 0"/><polygon class="cls-1" points="225.1 0 186.78 0 188.16 0.33 0 780.25 0 800 33.56 800 32.18 799.67 225.1 0"/><polygon class="cls-1" points="384.21 0 345.89 0 347.27 0.33 154.35 800 192.67 800 191.29 799.67 384.21 0"/><polygon class="cls-1" points="107.22 0 108.6 0.33 0 450.48 0 603.27 145.54 0 107.22 0"/><polygon class="cls-1" points="264.88 0 226.56 0 227.93 0.33 35.01 800 73.33 800 71.96 799.67 264.88 0"/><polygon class="cls-1" points="147 0 148.38 0.33 0 615.36 0 768.16 185.32 0 147 0"/><polygon class="cls-1" points="861.56 0 823.24 0 824.62 0.33 631.7 800 670.02 800 668.64 799.67 861.56 0"/><polygon class="cls-1" points="304.65 0 266.33 0 267.71 0.33 74.79 800 113.11 800 111.73 799.67 304.65 0"/><polygon class="cls-1" points="344.43 0 306.11 0 307.49 0.33 114.57 800 152.89 800 151.51 799.67 344.43 0"/><polygon class="cls-2" points="27.66 0 26.2 0 0 108.61 0 120.7 29.04 0.33 27.66 0"/><polygon class="cls-2" points="67.44 0 65.98 0 0 273.5 0 285.59 68.82 0.33 67.44 0"/><polygon class="cls-2" points="107.22 0 105.76 0 0 438.39 0 450.48 108.6 0.33 107.22 0"/><polygon class="cls-2" points="147 0 145.54 0 0 603.27 0 615.36 148.38 0.33 147 0"/><polygon class="cls-2" points="186.78 0 185.32 0 0 768.16 0 780.25 188.16 0.33 186.78 0"/><polygon class="cls-2" points="226.56 0 225.1 0 32.18 799.67 33.56 800 35.01 800 227.93 0.33 226.56 0"/><polygon class="cls-2" points="266.33 0 264.88 0 71.96 799.67 73.33 800 74.79 800 267.71 0.33 266.33 0"/><polygon class="cls-2" points="306.11 0 304.65 0 111.73 799.67 113.11 800 114.57 800 307.49 0.33 306.11 0"/><polygon class="cls-2" points="345.89 0 344.43 0 151.51 799.67 152.89 800 154.35 800 347.27 0.33 345.89 0"/><polygon class="cls-2" points="385.67 0 384.21 0 191.29 799.67 192.67 800 194.13 800 387.05 0.33 385.67 0"/><polygon class="cls-2" points="425.45 0 423.99 0 231.07 799.67 232.45 800 233.91 800 426.83 0.33 425.45 0"/><polygon class="cls-2" points="465.23 0 463.77 0 270.85 799.67 272.23 800 273.69 800 466.61 0.33 465.23 0"/><polygon class="cls-2" points="505.01 0 503.55 0 310.63 799.67 312.01 800 313.46 800 506.38 0.33 505.01 0"/><polygon class="cls-2" points="544.79 0 543.33 0 350.41 799.67 351.79 800 353.24 800 546.16 0.33 544.79 0"/><polygon class="cls-2" points="584.57 0 583.11 0 390.19 799.67 391.56 800 393.02 800 585.94 0.33 584.57 0"/><polygon class="cls-2" points="624.34 0 622.89 0 429.97 799.67 431.34 800 432.8 800 625.72 0.33 624.34 0"/><polygon class="cls-2" points="664.12 0 662.66 0 469.75 799.67 471.12 800 472.58 800 665.5 0.33 664.12 0"/><polygon class="cls-2" points="703.9 0 702.44 0 509.52 799.67 510.9 800 512.36 800 705.28 0.33 703.9 0"/><polygon class="cls-2" points="743.68 0 742.22 0 549.3 799.67 550.68 800 552.14 800 745.06 0.33 743.68 0"/><polygon class="cls-2" points="783.46 0 782 0 589.08 799.67 590.46 800 591.92 800 784.84 0.33 783.46 0"/><polygon class="cls-2" points="823.24 0 821.78 0 628.86 799.67 630.24 800 631.7 800 824.62 0.33 823.24 0"/><polygon class="cls-2" points="863.02 0 861.56 0 668.64 799.67 670.02 800 671.48 800 864.39 0.33 863.02 0"/><polygon class="cls-2" points="902.8 0 901.34 0 708.42 799.67 709.8 800 711.25 800 904.17 0.33 902.8 0"/><polygon class="cls-2" points="942.58 0 941.12 0 748.2 799.67 749.58 800 751.03 800 943.95 0.33 942.58 0"/><polygon class="cls-2" points="982.35 0 980.89 0 787.98 799.67 789.35 800 790.81 800 983.73 0.33 982.35 0"/><polygon class="cls-2" points="1022.13 0 1020.67 0 827.75 799.67 829.13 800 830.59 800 1023.51 0.33 1022.13 0"/><polygon class="cls-2" points="1061.91 0 1060.45 0 867.53 799.67 868.91 800 870.37 800 1063.29 0.33 1061.91 0"/><polygon class="cls-2" points="1101.69 0 1100.23 0 907.31 799.67 908.69 800 910.15 800 1103.07 0.33 1101.69 0"/><polygon class="cls-2" points="1141.47 0 1140.01 0 947.09 799.67 948.47 800 949.93 800 1142.85 0.33 1141.47 0"/><polygon class="cls-2" points="1181.25 0 1179.79 0 986.87 799.67 988.25 800 989.71 800 1182.63 0.33 1181.25 0"/><polygon class="cls-2" points="1200 81.11 1026.65 799.67 1028.03 800 1029.48 800 1200 93.2 1200 81.11"/><polygon class="cls-2" points="1200 246 1066.43 799.67 1067.81 800 1069.26 800 1200 258.09 1200 246"/><polygon class="cls-2" points="1200 410.89 1106.21 799.67 1107.58 800 1109.04 800 1200 422.97 1200 410.89"/><polygon class="cls-2" points="1200 575.77 1145.98 799.67 1147.36 800 1148.82 800 1200 587.86 1200 575.77"/><polygon class="cls-2" points="1200 740.66 1185.76 799.67 1187.14 800 1188.6 800 1200 752.75 1200 740.66"/></svg>