<svg id="Layer_1" data-name="Layer 1" xmlns="http://www.w3.org/2000/svg" viewBox="0 0 1367.29 236.22"><defs><style>.cls-1{fill:#231f20;}.cls-2{fill:#fff;stroke:#fff;stroke-miterlimit:10;stroke-width:0.14px;}</style></defs><title>Stripes-F</title><rect class="cls-1" x="35.56" y="16.74" width="1298.94" height="184.49"/><polygon class="cls-2" points="70.55 0.23 70.07 0.09 0.1 236.15 0.62 236.15 1.14 236.15 71.03 0.37 70.55 0.23"/><polygon class="cls-2" points="87.61 0.23 87.13 0.09 17.15 236.15 17.67 236.15 18.19 236.15 88.09 0.37 87.61 0.23"/><polygon class="cls-2" points="104.66 0.23 104.18 0.09 34.2 236.15 34.73 236.15 35.25 236.15 105.14 0.37 104.66 0.23"/><polygon class="cls-2" points="121.72 0.23 121.24 0.09 51.26 236.15 51.78 236.15 52.3 236.15 122.2 0.37 121.72 0.23"/><polygon class="cls-2" points="138.77 0.23 138.29 0.09 68.31 236.15 68.84 236.15 69.36 236.15 139.25 0.37 138.77 0.23"/><polygon class="cls-2" points="155.83 0.23 155.35 0.09 85.37 236.15 85.89 236.15 86.41 236.15 156.31 0.37 155.83 0.23"/><polygon class="cls-2" points="172.88 0.23 172.4 0.09 102.42 236.15 102.95 236.15 103.47 236.15 173.36 0.37 172.88 0.23"/><polygon class="cls-2" points="189.94 0.23 189.46 0.09 119.48 236.15 120 236.15 120.52 236.15 190.42 0.37 189.94 0.23"/><polygon class="cls-2" points="206.99 0.23 206.51 0.09 136.53 236.15 137.06 236.15 137.58 236.15 207.47 0.37 206.99 0.23"/><polygon class="cls-2" points="224.05 0.23 223.57 0.09 153.59 236.15 154.11 236.15 154.63 236.15 224.53 0.37 224.05 0.23"/><polygon class="cls-2" points="241.1 0.23 240.62 0.09 170.64 236.15 171.16 236.15 171.69 236.15 241.58 0.37 241.1 0.23"/><polygon class="cls-2" points="258.16 0.23 257.68 0.09 187.7 236.15 188.22 236.15 188.74 236.15 258.63 0.37 258.16 0.23"/><polygon class="cls-2" points="275.21 0.23 274.73 0.09 204.75 236.15 205.27 236.15 205.8 236.15 275.69 0.37 275.21 0.23"/><polygon class="cls-2" points="292.26 0.23 291.79 0.09 221.81 236.15 222.33 236.15 222.85 236.15 292.75 0.37 292.26 0.23"/><polygon class="cls-2" points="309.32 0.23 308.84 0.09 238.86 236.15 239.38 236.15 239.91 236.15 309.8 0.37 309.32 0.23"/><polygon class="cls-2" points="326.38 0.23 325.89 0.09 255.92 236.15 256.44 236.15 256.96 236.15 326.85 0.37 326.38 0.23"/><polygon class="cls-2" points="343.43 0.23 342.95 0.09 272.97 236.15 273.49 236.15 274.01 236.15 343.91 0.37 343.43 0.23"/><polygon class="cls-2" points="360.49 0.23 360 0.09 290.03 236.15 290.55 236.15 291.07 236.15 360.96 0.37 360.49 0.23"/><polygon class="cls-2" points="377.54 0.23 377.06 0.09 307.08 236.15 307.6 236.15 308.13 236.15 378.02 0.37 377.54 0.23"/><polygon class="cls-2" points="394.59 0.23 394.12 0.09 324.14 236.15 324.66 236.15 325.18 236.15 395.07 0.37 394.59 0.23"/><polygon class="cls-2" points="411.65 0.23 411.17 0.09 341.19 236.15 341.71 236.15 342.23 236.15 412.13 0.37 411.65 0.23"/><polygon class="cls-2" points="428.7 0.23 428.22 0.09 358.25 236.15 358.77 236.15 359.29 236.15 429.18 0.37 428.7 0.23"/><polygon class="cls-2" points="445.76 0.23 445.28 0.09 375.3 236.15 375.82 236.15 376.34 236.15 446.24 0.37 445.76 0.23"/><polygon class="cls-2" points="462.81 0.23 462.33 0.09 392.36 236.15 392.88 236.15 393.4 236.15 463.29 0.37 462.81 0.23"/><polygon class="cls-2" points="479.87 0.23 479.39 0.09 409.41 236.15 409.93 236.15 410.45 236.15 480.35 0.37 479.87 0.23"/><polygon class="cls-2" points="496.92 0.23 496.44 0.09 426.46 236.15 426.99 236.15 427.51 236.15 497.4 0.37 496.92 0.23"/><polygon class="cls-2" points="513.98 0.23 513.5 0.09 443.52 236.15 444.04 236.15 444.56 236.15 514.46 0.37 513.98 0.23"/><polygon class="cls-2" points="531.03 0.23 530.55 0.09 460.57 236.15 461.1 236.15 461.62 236.15 531.51 0.37 531.03 0.23"/><polygon class="cls-2" points="548.09 0.23 547.61 0.09 477.63 236.15 478.15 236.15 478.67 236.15 548.57 0.37 548.09 0.23"/><polygon class="cls-2" points="565.14 0.23 564.66 0.09 494.68 236.15 495.21 236.15 495.73 236.15 565.62 0.37 565.14 0.23"/><polygon class="cls-2" points="582.2 0.23 581.72 0.09 511.74 236.15 512.26 236.15 512.78 236.15 582.68 0.37 582.2 0.23"/><polygon class="cls-2" points="599.25 0.23 598.77 0.09 528.79 236.15 529.32 236.15 529.84 236.15 599.73 0.37 599.25 0.23"/><polygon class="cls-2" points="616.31 0.23 615.83 0.09 545.85 236.15 546.37 236.15 546.89 236.15 616.79 0.37 616.31 0.23"/><polygon class="cls-2" points="633.36 0.23 632.88 0.09 562.9 236.15 563.42 236.15 563.95 236.15 633.84 0.37 633.36 0.23"/><polygon class="cls-2" points="650.42 0.23 649.94 0.09 579.96 236.15 580.48 236.15 581 236.15 650.9 0.37 650.42 0.23"/><polygon class="cls-2" points="667.47 0.23 666.99 0.09 597.01 236.15 597.53 236.15 598.06 236.15 667.95 0.37 667.47 0.23"/><polygon class="cls-2" points="684.53 0.23 684.05 0.09 614.07 236.15 614.59 236.15 615.11 236.15 685 0.37 684.53 0.23"/><polygon class="cls-2" points="701.58 0.23 701.1 0.09 631.12 236.15 631.64 236.15 632.17 236.15 702.06 0.37 701.58 0.23"/><polygon class="cls-2" points="718.63 0.23 718.16 0.09 648.18 236.15 648.7 236.15 649.22 236.15 719.12 0.37 718.63 0.23"/><polygon class="cls-2" points="735.69 0.23 735.21 0.09 665.23 236.15 665.75 236.15 666.28 236.15 736.17 0.37 735.69 0.23"/><polygon class="cls-2" points="752.75 0.23 752.26 0.09 682.29 236.15 682.81 236.15 683.33 236.15 753.22 0.37 752.75 0.23"/><polygon class="cls-2" points="769.8 0.23 769.32 0.09 699.34 236.15 699.86 236.15 700.38 236.15 770.28 0.37 769.8 0.23"/><polygon class="cls-2" points="786.86 0.23 786.38 0.09 716.4 236.15 716.92 236.15 717.44 236.15 787.33 0.37 786.86 0.23"/><polygon class="cls-2" points="803.91 0.23 803.43 0.09 733.45 236.15 733.97 236.15 734.5 236.15 804.39 0.37 803.91 0.23"/><polygon class="cls-2" points="820.96 0.23 820.49 0.09 750.51 236.15 751.03 236.15 751.55 236.15 821.44 0.37 820.96 0.23"/><polygon class="cls-2" points="838.02 0.23 837.54 0.09 767.56 236.15 768.08 236.15 768.6 236.15 838.5 0.37 838.02 0.23"/><polygon class="cls-2" points="855.07 0.23 854.59 0.09 784.62 236.15 785.14 236.15 785.66 236.15 855.55 0.37 855.07 0.23"/><polygon class="cls-2" points="872.13 0.23 871.65 0.09 801.67 236.15 802.19 236.15 802.71 236.15 872.61 0.37 872.13 0.23"/><polygon class="cls-2" points="889.18 0.23 888.7 0.09 818.73 236.15 819.25 236.15 819.77 236.15 889.66 0.37 889.18 0.23"/><polygon class="cls-2" points="906.24 0.23 905.76 0.09 835.78 236.15 836.3 236.15 836.82 236.15 906.72 0.37 906.24 0.23"/><polygon class="cls-2" points="923.29 0.23 922.81 0.09 852.84 236.15 853.36 236.15 853.88 236.15 923.77 0.37 923.29 0.23"/><polygon class="cls-2" points="940.35 0.23 939.87 0.09 869.89 236.15 870.41 236.15 870.93 236.15 940.83 0.37 940.35 0.23"/><polygon class="cls-2" points="957.4 0.23 956.92 0.09 886.95 236.15 887.47 236.15 887.99 236.15 957.88 0.37 957.4 0.23"/><polygon class="cls-2" points="974.46 0.23 973.98 0.09 904 236.15 904.52 236.15 905.04 236.15 974.94 0.37 974.46 0.23"/><polygon class="cls-2" points="991.51 0.23 991.03 0.09 921.05 236.15 921.58 236.15 922.1 236.15 991.99 0.37 991.51 0.23"/><polygon class="cls-2" points="1008.57 0.23 1008.09 0.09 938.11 236.15 938.63 236.15 939.15 236.15 1009.05 0.37 1008.57 0.23"/><polygon class="cls-2" points="1025.62 0.23 1025.14 0.09 955.16 236.15 955.69 236.15 956.21 236.15 1026.1 0.37 1025.62 0.23"/><polygon class="cls-2" points="1042.68 0.23 1042.2 0.09 972.22 236.15 972.74 236.15 973.26 236.15 1043.16 0.37 1042.68 0.23"/><polygon class="cls-2" points="1059.73 0.23 1059.25 0.09 989.27 236.15 989.79 236.15 990.32 236.15 1060.21 0.37 1059.73 0.23"/><polygon class="cls-2" points="1076.79 0.23 1076.31 0.09 1006.33 236.15 1006.85 236.15 1007.37 236.15 1077.27 0.37 1076.79 0.23"/><polygon class="cls-2" points="1093.84 0.23 1093.36 0.09 1023.38 236.15 1023.9 236.15 1024.43 236.15 1094.32 0.37 1093.84 0.23"/><polygon class="cls-2" points="1110.9 0.23 1110.42 0.09 1040.44 236.15 1040.96 236.15 1041.48 236.15 1111.38 0.37 1110.9 0.23"/><polygon class="cls-2" points="1127.95 0.23 1127.47 0.09 1057.49 236.15 1058.01 236.15 1058.54 236.15 1128.43 0.37 1127.95 0.23"/><polygon class="cls-2" points="1145.01 0.23 1144.53 0.09 1074.55 236.15 1075.07 236.15 1075.59 236.15 1145.48 0.37 1145.01 0.23"/><polygon class="cls-2" points="1162.06 0.23 1161.58 0.09 1091.6 236.15 1092.12 236.15 1092.65 236.15 1162.54 0.37 1162.06 0.23"/><polygon class="cls-2" points="1179.12 0.23 1178.63 0.09 1108.66 236.15 1109.18 236.15 1109.7 236.15 1179.59 0.37 1179.12 0.23"/><polygon class="cls-2" points="1196.17 0.23 1195.69 0.09 1125.71 236.15 1126.23 236.15 1126.76 236.15 1196.65 0.37 1196.17 0.23"/><polygon class="cls-2" points="1213.22 0.23 1212.74 0.09 1142.77 236.15 1143.29 236.15 1143.81 236.15 1213.7 0.37 1213.22 0.23"/><polygon class="cls-2" points="1230.28 0.23 1229.8 0.09 1159.82 236.15 1160.34 236.15 1160.87 236.15 1230.76 0.37 1230.28 0.23"/><polygon class="cls-2" points="1247.33 0.23 1246.86 0.09 1176.88 236.15 1177.4 236.15 1177.92 236.15 1247.81 0.37 1247.33 0.23"/><polygon class="cls-2" points="1264.39 0.23 1263.91 0.09 1193.93 236.15 1194.45 236.15 1194.97 236.15 1264.87 0.37 1264.39 0.23"/><polygon class="cls-2" points="1281.44 0.23 1280.96 0.09 1210.99 236.15 1211.51 236.15 1212.03 236.15 1281.92 0.37 1281.44 0.23"/><polygon class="cls-2" points="1298.5 0.23 1298.02 0.09 1228.04 236.15 1228.56 236.15 1229.08 236.15 1298.98 0.37 1298.5 0.23"/><polygon class="cls-2" points="1315.55 0.23 1315.07 0.09 1245.1 236.15 1245.62 236.15 1246.14 236.15 1316.03 0.37 1315.55 0.23"/><polygon class="cls-2" points="1332.61 0.23 1332.13 0.09 1262.15 236.15 1262.67 236.15 1263.19 236.15 1333.09 0.37 1332.61 0.23"/><polygon class="cls-2" points="1349.66 0.23 1349.18 0.09 1279.2 236.15 1279.73 236.15 1280.25 236.15 1350.14 0.37 1349.66 0.23"/><polygon class="cls-2" points="1366.72 0.23 1366.24 0.09 1296.26 236.15 1296.78 236.15 1297.3 236.15 1367.2 0.37 1366.72 0.23"/></svg>